<svg width="22" height="20" viewBox="0 0 22 20" fill="none" xmlns="http://www.w3.org/2000/svg">
<path fill-rule="evenodd" clip-rule="evenodd" d="M2.88824 10C2.88824 5.70445 6.37047 2.22222 10.666 2.22222C14.9616 2.22222 18.4438 5.70445 18.4438 10C18.4438 11.7132 17.8912 13.294 16.9543 14.5783C16.8891 14.6677 16.8392 14.7636 16.8041 14.8628C16.7767 14.8871 16.7503 14.913 16.7249 14.9404C16.3085 15.3912 16.3363 16.0941 16.787 16.5106L19.9815 19.4619C20.4322 19.8784 21.1351 19.8506 21.5516 19.3999C21.968 18.9491 21.9402 18.2462 21.4895 17.8297L18.9995 15.5292C20.0523 13.9452 20.666 12.0428 20.666 10C20.666 4.47715 16.1889 0 10.666 0C5.14317 0 0.666016 4.47715 0.666016 10C0.666016 15.5228 5.14317 20 10.666 20C12.2605 20 13.7708 19.626 15.1111 18.9599C15.6606 18.6868 15.8847 18.02 15.6116 17.4704C15.3386 16.9209 14.6717 16.6968 14.1222 16.9699C13.0823 17.4867 11.9097 17.7778 10.666 17.7778C6.37047 17.7778 2.88824 14.2955 2.88824 10Z" fill="url(#paint0_linear_53_1426)"/>
<defs>
<linearGradient id="paint0_linear_53_1426" x1="11.2563" y1="2.22222" x2="13.6032" y2="32.0478" gradientUnits="userSpaceOnUse">
<stop stop-color="#FF7A00"/>
<stop offset="1" stop-color="#FF0000"/>
</linearGradient>
</defs>
</svg>
