<svg width="150" height="30" viewBox="0 0 150 30" fill="none" xmlns="http://www.w3.org/2000/svg">
<path d="M14.999 0L18.3667 10.3647H29.2649L20.4481 16.7705L23.8158 27.1353L14.999 20.7295L6.18224 27.1353L9.54995 16.7705L0.733175 10.3647H11.6313L14.999 0Z" fill="#FFB800"/>
<path d="M44.999 0L48.3667 10.3647H59.2649L50.4481 16.7705L53.8158 27.1353L44.999 20.7295L36.1822 27.1353L39.55 16.7705L30.7332 10.3647H41.6313L44.999 0Z" fill="#FFB800"/>
<path d="M74.999 0L78.3667 10.3647H89.2649L80.4481 16.7705L83.8158 27.1353L74.999 20.7295L66.1822 27.1353L69.55 16.7705L60.7332 10.3647H71.6313L74.999 0Z" fill="#FFB800"/>
<path d="M104.999 0L108.367 10.3647H119.265L110.448 16.7705L113.816 27.1353L104.999 20.7295L96.1822 27.1353L99.55 16.7705L90.7332 10.3647H101.631L104.999 0Z" fill="#FFB800"/>
<path d="M134.999 0L138.367 10.3647H149.265L140.448 16.7705L143.816 27.1353L134.999 20.7295L126.182 27.1353L129.55 16.7705L120.733 10.3647H131.631L134.999 0Z" fill="#9D9D9D" fill-opacity="0.5"/>
</svg>
