<svg width="80" height="80" viewBox="0 0 80 80" fill="none" xmlns="http://www.w3.org/2000/svg">
<path d="M0 40C0 17.9086 17.9086 0 40 0C62.0914 0 80 17.9086 80 40C80 62.0914 62.0914 80 40 80C17.9086 80 0 62.0914 0 40Z" fill="#00AE3B" fill-opacity="0.75"/>
<g clip-path="url(#clip0_260_265)">
<path d="M53.4236 26.5764C49.9887 23.1414 45.4228 21.25 40.5648 21.25C40.5645 21.25 40.5633 21.25 40.5631 21.25C38.1604 21.2503 35.8189 21.7155 33.6042 22.633C31.3892 23.5505 29.4048 24.8772 27.7056 26.5764C24.271 30.011 22.3795 34.5778 22.3795 39.4352C22.3795 42.332 23.0785 45.2108 24.4029 47.7757L21.3461 56.5081C21.1307 57.1241 21.2832 57.7936 21.745 58.255C22.068 58.5783 22.4931 58.75 22.9303 58.75C23.1177 58.75 23.3071 58.7185 23.4919 58.6539L32.2243 55.5974C34.7892 56.9218 37.668 57.6208 40.5648 57.6208C45.4222 57.6208 49.9887 55.729 53.4236 52.2944C56.8583 48.8597 58.75 44.293 58.75 39.4355C58.75 34.5778 56.8586 30.011 53.4236 26.5764ZM51.8684 50.7391C48.8492 53.7587 44.8346 55.4212 40.5648 55.4212C37.9527 55.4212 35.3577 54.7752 33.0603 53.5524C32.6437 53.3309 32.1514 53.2929 31.7093 53.4477L23.7757 56.2243L26.5526 48.2907C26.7074 47.8481 26.6691 47.3557 26.4476 46.9394C25.2251 44.6426 24.5788 42.0476 24.5788 39.4352C24.5788 35.1654 26.2416 31.1509 29.2609 28.1316C32.2798 25.1127 36.2938 23.4498 40.5633 23.4493H40.5648C44.8349 23.4493 48.8492 25.1121 51.8684 28.1316C54.8879 31.1509 56.5507 35.1652 56.5507 39.4352C56.5507 43.7053 54.8879 47.7199 51.8684 50.7391Z" fill="white"/>
<path d="M47.323 41.0598C46.4864 40.2233 45.1252 40.2233 44.2886 41.0598L43.3737 41.9748C41.1017 40.7368 39.2632 38.8983 38.025 36.6264L38.9399 35.7114C39.7768 34.8749 39.7768 33.5136 38.9399 32.677L36.4743 30.2114C35.6377 29.3748 34.2765 29.3748 33.4399 30.2114L31.4675 32.1838C30.3377 33.3136 30.2813 35.256 31.3087 37.6532C32.2008 39.7346 33.8333 42.0223 35.9055 44.0945C37.9778 46.1668 40.2654 47.7993 42.3468 48.6913C43.4858 49.1794 44.5218 49.4229 45.417 49.4229C46.406 49.4229 47.2232 49.1256 47.8162 48.5325L49.7886 46.5599V46.5602C50.194 46.1547 50.4172 45.616 50.4172 45.043C50.4172 44.4696 50.194 43.9309 49.7886 43.5258L47.323 41.0598ZM46.261 46.9773C45.9386 47.2997 44.9469 47.4127 43.2134 46.67C41.383 45.8855 39.3399 44.4184 37.4608 42.5393C35.5817 40.6602 34.1148 38.6174 33.3303 36.7869C32.5873 35.0534 32.7003 34.0615 33.0228 33.739L34.9574 31.8044L37.3469 34.1942L36.2016 35.3398C35.6838 35.8576 35.5588 36.643 35.8909 37.2942C37.3967 40.2467 39.7533 42.6034 42.7059 44.1091C43.3573 44.4413 44.1427 44.3165 44.6605 43.7984L45.8058 42.6531L48.1956 45.043L46.261 46.9773Z" fill="white"/>
</g>
<defs>
<clipPath id="clip0_260_265">
<rect width="37.5" height="37.5" fill="white" transform="translate(21.25 21.25)"/>
</clipPath>
</defs>
</svg>
